<mxfile host="Electron" modified="2025-02-03T12:44:01.434Z" agent="Mozilla/5.0 (Windows NT 10.0; Win64; x64) AppleWebKit/537.36 (KHTML, like Gecko) draw.io/24.4.8 Chrome/124.0.6367.207 Electron/30.0.6 Safari/537.36" etag="-SIQ8uNXd9E64afyybli" version="24.4.8" type="device">
  <diagram name="Page-1" id="JoDP21CZRDs701MB4zbN">
    <mxGraphModel dx="1687" dy="1811" grid="1" gridSize="5" guides="1" tooltips="1" connect="1" arrows="1" fold="1" page="1" pageScale="1" pageWidth="1169" pageHeight="827" math="0" shadow="0">
      <root>
        <mxCell id="0" />
        <mxCell id="1" parent="0" />
        <mxCell id="1SVUICcPxDttwj-VCRMJ-4" value="" style="group;fontSize=18;" vertex="1" connectable="0" parent="1">
          <mxGeometry x="80" y="-780" width="114" height="114" as="geometry" />
        </mxCell>
        <mxCell id="_LNUH62r5Fy6DammPPFX-31" value="" style="verticalLabelPosition=bottom;verticalAlign=top;html=1;shape=mxgraph.basic.polygon;polyCoords=[[-0.1,0],[1.1,0],[1,1],[0,1]];polyline=0;" parent="1SVUICcPxDttwj-VCRMJ-4" vertex="1">
          <mxGeometry x="27" width="60" height="27" as="geometry" />
        </mxCell>
        <mxCell id="1SVUICcPxDttwj-VCRMJ-1" value="" style="verticalLabelPosition=bottom;verticalAlign=top;html=1;shape=mxgraph.basic.polygon;polyCoords=[[-0.1,0],[1.1,0],[1,1],[0,1]];polyline=0;rotation=-180;direction=south;" vertex="1" parent="1SVUICcPxDttwj-VCRMJ-4">
          <mxGeometry y="27" width="27" height="60" as="geometry" />
        </mxCell>
        <mxCell id="1SVUICcPxDttwj-VCRMJ-2" value="" style="verticalLabelPosition=bottom;verticalAlign=top;html=1;shape=mxgraph.basic.polygon;polyCoords=[[-0.1,0],[1.1,0],[1,1],[0,1]];polyline=0;rotation=-180;direction=south;flipV=1;flipH=1;" vertex="1" parent="1SVUICcPxDttwj-VCRMJ-4">
          <mxGeometry x="87" y="27" width="27" height="60" as="geometry" />
        </mxCell>
        <mxCell id="1SVUICcPxDttwj-VCRMJ-3" value="" style="verticalLabelPosition=bottom;verticalAlign=top;html=1;shape=mxgraph.basic.polygon;polyCoords=[[-0.1,0],[1.1,0],[1,1],[0,1]];polyline=0;flipH=1;flipV=1;" vertex="1" parent="1SVUICcPxDttwj-VCRMJ-4">
          <mxGeometry x="27" y="87" width="60" height="27" as="geometry" />
        </mxCell>
        <mxCell id="_LNUH62r5Fy6DammPPFX-22" value="&lt;font style=&quot;font-size: 28px;&quot;&gt;&lt;b style=&quot;font-size: 28px;&quot;&gt;F13&lt;/b&gt;&lt;/font&gt;" style="whiteSpace=wrap;html=1;aspect=fixed;fillColor=#d5e8d4;strokeColor=#82b366;fontSize=28;fontFamily=hack;" parent="1SVUICcPxDttwj-VCRMJ-4" vertex="1">
          <mxGeometry x="27" y="27" width="60" height="60" as="geometry" />
        </mxCell>
        <mxCell id="1SVUICcPxDttwj-VCRMJ-11" value="" style="group" vertex="1" connectable="0" parent="1">
          <mxGeometry x="260" y="-780" width="114" height="114" as="geometry" />
        </mxCell>
        <mxCell id="1SVUICcPxDttwj-VCRMJ-6" value="" style="verticalLabelPosition=bottom;verticalAlign=top;html=1;shape=mxgraph.basic.polygon;polyCoords=[[-0.1,0],[1.1,0],[1,1],[0,1]];polyline=0;container=0;" vertex="1" parent="1SVUICcPxDttwj-VCRMJ-11">
          <mxGeometry x="27" width="60" height="27" as="geometry" />
        </mxCell>
        <mxCell id="1SVUICcPxDttwj-VCRMJ-8" value="" style="verticalLabelPosition=bottom;verticalAlign=top;html=1;shape=mxgraph.basic.polygon;polyCoords=[[-0.1,0],[1.1,0],[1,1],[0,1]];polyline=0;rotation=-180;direction=south;container=0;" vertex="1" parent="1SVUICcPxDttwj-VCRMJ-11">
          <mxGeometry y="27" width="27" height="60" as="geometry" />
        </mxCell>
        <mxCell id="1SVUICcPxDttwj-VCRMJ-9" value="" style="verticalLabelPosition=bottom;verticalAlign=top;html=1;shape=mxgraph.basic.polygon;polyCoords=[[-0.1,0],[1.1,0],[1,1],[0,1]];polyline=0;rotation=-180;direction=south;flipV=1;flipH=1;container=0;" vertex="1" parent="1SVUICcPxDttwj-VCRMJ-11">
          <mxGeometry x="87" y="27" width="27" height="60" as="geometry" />
        </mxCell>
        <mxCell id="1SVUICcPxDttwj-VCRMJ-10" value="" style="verticalLabelPosition=bottom;verticalAlign=top;html=1;shape=mxgraph.basic.polygon;polyCoords=[[-0.1,0],[1.1,0],[1,1],[0,1]];polyline=0;flipH=1;flipV=1;container=0;" vertex="1" parent="1SVUICcPxDttwj-VCRMJ-11">
          <mxGeometry x="27" y="87" width="60" height="27" as="geometry" />
        </mxCell>
        <mxCell id="1SVUICcPxDttwj-VCRMJ-7" value="&lt;font style=&quot;font-size: 28px;&quot;&gt;&lt;b style=&quot;font-size: 28px;&quot;&gt;F14&lt;/b&gt;&lt;/font&gt;" style="whiteSpace=wrap;html=1;aspect=fixed;fillColor=#d5e8d4;strokeColor=#82b366;fontSize=28;fontFamily=hack;container=0;" vertex="1" parent="1SVUICcPxDttwj-VCRMJ-11">
          <mxGeometry x="27" y="27" width="60" height="60" as="geometry" />
        </mxCell>
        <mxCell id="1SVUICcPxDttwj-VCRMJ-12" value="" style="group" vertex="1" connectable="0" parent="1">
          <mxGeometry x="440" y="-780" width="114" height="114" as="geometry" />
        </mxCell>
        <mxCell id="1SVUICcPxDttwj-VCRMJ-13" value="" style="verticalLabelPosition=bottom;verticalAlign=top;html=1;shape=mxgraph.basic.polygon;polyCoords=[[-0.1,0],[1.1,0],[1,1],[0,1]];polyline=0;container=0;" vertex="1" parent="1SVUICcPxDttwj-VCRMJ-12">
          <mxGeometry x="27" width="60" height="27" as="geometry" />
        </mxCell>
        <mxCell id="1SVUICcPxDttwj-VCRMJ-14" value="" style="verticalLabelPosition=bottom;verticalAlign=top;html=1;shape=mxgraph.basic.polygon;polyCoords=[[-0.1,0],[1.1,0],[1,1],[0,1]];polyline=0;rotation=-180;direction=south;container=0;" vertex="1" parent="1SVUICcPxDttwj-VCRMJ-12">
          <mxGeometry y="27" width="27" height="60" as="geometry" />
        </mxCell>
        <mxCell id="1SVUICcPxDttwj-VCRMJ-15" value="" style="verticalLabelPosition=bottom;verticalAlign=top;html=1;shape=mxgraph.basic.polygon;polyCoords=[[-0.1,0],[1.1,0],[1,1],[0,1]];polyline=0;rotation=-180;direction=south;flipV=1;flipH=1;container=0;" vertex="1" parent="1SVUICcPxDttwj-VCRMJ-12">
          <mxGeometry x="87" y="27" width="27" height="60" as="geometry" />
        </mxCell>
        <mxCell id="1SVUICcPxDttwj-VCRMJ-16" value="" style="verticalLabelPosition=bottom;verticalAlign=top;html=1;shape=mxgraph.basic.polygon;polyCoords=[[-0.1,0],[1.1,0],[1,1],[0,1]];polyline=0;flipH=1;flipV=1;container=0;" vertex="1" parent="1SVUICcPxDttwj-VCRMJ-12">
          <mxGeometry x="27" y="87" width="60" height="27" as="geometry" />
        </mxCell>
        <mxCell id="1SVUICcPxDttwj-VCRMJ-17" value="&lt;font style=&quot;font-size: 28px;&quot;&gt;&lt;b style=&quot;font-size: 28px;&quot;&gt;F15&lt;/b&gt;&lt;/font&gt;" style="whiteSpace=wrap;html=1;aspect=fixed;fillColor=#d5e8d4;strokeColor=#82b366;fontSize=28;fontFamily=hack;container=0;" vertex="1" parent="1SVUICcPxDttwj-VCRMJ-12">
          <mxGeometry x="27" y="27" width="60" height="60" as="geometry" />
        </mxCell>
        <mxCell id="1SVUICcPxDttwj-VCRMJ-18" value="" style="group" vertex="1" connectable="0" parent="1">
          <mxGeometry x="800" y="-780" width="114" height="114" as="geometry" />
        </mxCell>
        <mxCell id="1SVUICcPxDttwj-VCRMJ-19" value="" style="verticalLabelPosition=bottom;verticalAlign=top;html=1;shape=mxgraph.basic.polygon;polyCoords=[[-0.1,0],[1.1,0],[1,1],[0,1]];polyline=0;container=0;" vertex="1" parent="1SVUICcPxDttwj-VCRMJ-18">
          <mxGeometry x="27" width="60" height="27" as="geometry" />
        </mxCell>
        <mxCell id="1SVUICcPxDttwj-VCRMJ-20" value="" style="verticalLabelPosition=bottom;verticalAlign=top;html=1;shape=mxgraph.basic.polygon;polyCoords=[[-0.1,0],[1.1,0],[1,1],[0,1]];polyline=0;rotation=-180;direction=south;container=0;" vertex="1" parent="1SVUICcPxDttwj-VCRMJ-18">
          <mxGeometry y="27" width="27" height="60" as="geometry" />
        </mxCell>
        <mxCell id="1SVUICcPxDttwj-VCRMJ-21" value="" style="verticalLabelPosition=bottom;verticalAlign=top;html=1;shape=mxgraph.basic.polygon;polyCoords=[[-0.1,0],[1.1,0],[1,1],[0,1]];polyline=0;rotation=-180;direction=south;flipV=1;flipH=1;container=0;" vertex="1" parent="1SVUICcPxDttwj-VCRMJ-18">
          <mxGeometry x="87" y="27" width="27" height="60" as="geometry" />
        </mxCell>
        <mxCell id="1SVUICcPxDttwj-VCRMJ-22" value="" style="verticalLabelPosition=bottom;verticalAlign=top;html=1;shape=mxgraph.basic.polygon;polyCoords=[[-0.1,0],[1.1,0],[1,1],[0,1]];polyline=0;flipH=1;flipV=1;container=0;" vertex="1" parent="1SVUICcPxDttwj-VCRMJ-18">
          <mxGeometry x="27" y="87" width="60" height="27" as="geometry" />
        </mxCell>
        <mxCell id="1SVUICcPxDttwj-VCRMJ-23" value="&lt;b&gt;play&lt;/b&gt;&lt;div&gt;&lt;b&gt;pause&lt;/b&gt;&lt;/div&gt;" style="whiteSpace=wrap;html=1;aspect=fixed;fillColor=#fff2cc;strokeColor=#d6b656;fontSize=18;fontFamily=hack;container=0;" vertex="1" parent="1SVUICcPxDttwj-VCRMJ-18">
          <mxGeometry x="27" y="27" width="60" height="60" as="geometry" />
        </mxCell>
        <mxCell id="1SVUICcPxDttwj-VCRMJ-24" value="" style="group" vertex="1" connectable="0" parent="1">
          <mxGeometry x="800" y="-620" width="114" height="114" as="geometry" />
        </mxCell>
        <mxCell id="1SVUICcPxDttwj-VCRMJ-25" value="" style="verticalLabelPosition=bottom;verticalAlign=top;html=1;shape=mxgraph.basic.polygon;polyCoords=[[-0.1,0],[1.1,0],[1,1],[0,1]];polyline=0;container=0;" vertex="1" parent="1SVUICcPxDttwj-VCRMJ-24">
          <mxGeometry x="27" width="60" height="27" as="geometry" />
        </mxCell>
        <mxCell id="1SVUICcPxDttwj-VCRMJ-26" value="" style="verticalLabelPosition=bottom;verticalAlign=top;html=1;shape=mxgraph.basic.polygon;polyCoords=[[-0.1,0],[1.1,0],[1,1],[0,1]];polyline=0;rotation=-180;direction=south;container=0;" vertex="1" parent="1SVUICcPxDttwj-VCRMJ-24">
          <mxGeometry y="27" width="27" height="60" as="geometry" />
        </mxCell>
        <mxCell id="1SVUICcPxDttwj-VCRMJ-27" value="" style="verticalLabelPosition=bottom;verticalAlign=top;html=1;shape=mxgraph.basic.polygon;polyCoords=[[-0.1,0],[1.1,0],[1,1],[0,1]];polyline=0;rotation=-180;direction=south;flipV=1;flipH=1;container=0;" vertex="1" parent="1SVUICcPxDttwj-VCRMJ-24">
          <mxGeometry x="87" y="27" width="27" height="60" as="geometry" />
        </mxCell>
        <mxCell id="1SVUICcPxDttwj-VCRMJ-28" value="" style="verticalLabelPosition=bottom;verticalAlign=top;html=1;shape=mxgraph.basic.polygon;polyCoords=[[-0.1,0],[1.1,0],[1,1],[0,1]];polyline=0;flipH=1;flipV=1;container=0;" vertex="1" parent="1SVUICcPxDttwj-VCRMJ-24">
          <mxGeometry x="27" y="87" width="60" height="27" as="geometry" />
        </mxCell>
        <mxCell id="1SVUICcPxDttwj-VCRMJ-29" value="print" style="whiteSpace=wrap;html=1;aspect=fixed;fillColor=#f8cecc;strokeColor=#b85450;fontSize=18;fontFamily=hack;container=0;fontStyle=1" vertex="1" parent="1SVUICcPxDttwj-VCRMJ-24">
          <mxGeometry x="27" y="27" width="60" height="60" as="geometry" />
        </mxCell>
        <mxCell id="1SVUICcPxDttwj-VCRMJ-30" value="" style="group;fontSize=13;" vertex="1" connectable="0" parent="1">
          <mxGeometry x="80" y="-620" width="114" height="114" as="geometry" />
        </mxCell>
        <mxCell id="1SVUICcPxDttwj-VCRMJ-31" value="" style="verticalLabelPosition=bottom;verticalAlign=top;html=1;shape=mxgraph.basic.polygon;polyCoords=[[-0.1,0],[1.1,0],[1,1],[0,1]];polyline=0;container=0;" vertex="1" parent="1SVUICcPxDttwj-VCRMJ-30">
          <mxGeometry x="27" width="60" height="27" as="geometry" />
        </mxCell>
        <mxCell id="1SVUICcPxDttwj-VCRMJ-32" value="" style="verticalLabelPosition=bottom;verticalAlign=top;html=1;shape=mxgraph.basic.polygon;polyCoords=[[-0.1,0],[1.1,0],[1,1],[0,1]];polyline=0;rotation=-180;direction=south;container=0;" vertex="1" parent="1SVUICcPxDttwj-VCRMJ-30">
          <mxGeometry y="27" width="27" height="60" as="geometry" />
        </mxCell>
        <mxCell id="1SVUICcPxDttwj-VCRMJ-33" value="" style="verticalLabelPosition=bottom;verticalAlign=top;html=1;shape=mxgraph.basic.polygon;polyCoords=[[-0.1,0],[1.1,0],[1,1],[0,1]];polyline=0;rotation=-180;direction=south;flipV=1;flipH=1;container=0;" vertex="1" parent="1SVUICcPxDttwj-VCRMJ-30">
          <mxGeometry x="87" y="27" width="27" height="60" as="geometry" />
        </mxCell>
        <mxCell id="1SVUICcPxDttwj-VCRMJ-34" value="" style="verticalLabelPosition=bottom;verticalAlign=top;html=1;shape=mxgraph.basic.polygon;polyCoords=[[-0.1,0],[1.1,0],[1,1],[0,1]];polyline=0;flipH=1;flipV=1;container=0;" vertex="1" parent="1SVUICcPxDttwj-VCRMJ-30">
          <mxGeometry x="27" y="87" width="60" height="27" as="geometry" />
        </mxCell>
        <mxCell id="1SVUICcPxDttwj-VCRMJ-35" value="&lt;b style=&quot;font-size: 20px;&quot;&gt;home&lt;/b&gt;" style="whiteSpace=wrap;html=1;aspect=fixed;fillColor=#e1d5e7;strokeColor=#9673a6;fontSize=20;fontFamily=hack;container=0;" vertex="1" parent="1SVUICcPxDttwj-VCRMJ-30">
          <mxGeometry x="27" y="27" width="60" height="60" as="geometry" />
        </mxCell>
        <mxCell id="1SVUICcPxDttwj-VCRMJ-42" value="" style="group;fontSize=13;" vertex="1" connectable="0" parent="1">
          <mxGeometry x="260" y="-620" width="114" height="114" as="geometry" />
        </mxCell>
        <mxCell id="1SVUICcPxDttwj-VCRMJ-43" value="" style="verticalLabelPosition=bottom;verticalAlign=top;html=1;shape=mxgraph.basic.polygon;polyCoords=[[-0.1,0],[1.1,0],[1,1],[0,1]];polyline=0;container=0;" vertex="1" parent="1SVUICcPxDttwj-VCRMJ-42">
          <mxGeometry x="27" width="60" height="27" as="geometry" />
        </mxCell>
        <mxCell id="1SVUICcPxDttwj-VCRMJ-44" value="" style="verticalLabelPosition=bottom;verticalAlign=top;html=1;shape=mxgraph.basic.polygon;polyCoords=[[-0.1,0],[1.1,0],[1,1],[0,1]];polyline=0;rotation=-180;direction=south;container=0;" vertex="1" parent="1SVUICcPxDttwj-VCRMJ-42">
          <mxGeometry y="27" width="27" height="60" as="geometry" />
        </mxCell>
        <mxCell id="1SVUICcPxDttwj-VCRMJ-45" value="" style="verticalLabelPosition=bottom;verticalAlign=top;html=1;shape=mxgraph.basic.polygon;polyCoords=[[-0.1,0],[1.1,0],[1,1],[0,1]];polyline=0;rotation=-180;direction=south;flipV=1;flipH=1;container=0;" vertex="1" parent="1SVUICcPxDttwj-VCRMJ-42">
          <mxGeometry x="87" y="27" width="27" height="60" as="geometry" />
        </mxCell>
        <mxCell id="1SVUICcPxDttwj-VCRMJ-46" value="" style="verticalLabelPosition=bottom;verticalAlign=top;html=1;shape=mxgraph.basic.polygon;polyCoords=[[-0.1,0],[1.1,0],[1,1],[0,1]];polyline=0;flipH=1;flipV=1;container=0;" vertex="1" parent="1SVUICcPxDttwj-VCRMJ-42">
          <mxGeometry x="27" y="87" width="60" height="27" as="geometry" />
        </mxCell>
        <mxCell id="1SVUICcPxDttwj-VCRMJ-47" value="&lt;b style=&quot;font-size: 20px;&quot;&gt;end&lt;/b&gt;" style="whiteSpace=wrap;html=1;aspect=fixed;fillColor=#e1d5e7;strokeColor=#9673a6;fontSize=20;fontFamily=hack;container=0;" vertex="1" parent="1SVUICcPxDttwj-VCRMJ-42">
          <mxGeometry x="27" y="27" width="60" height="60" as="geometry" />
        </mxCell>
        <mxCell id="1SVUICcPxDttwj-VCRMJ-48" value="" style="group;fontSize=13;" vertex="1" connectable="0" parent="1">
          <mxGeometry x="440" y="-620" width="114" height="114" as="geometry" />
        </mxCell>
        <mxCell id="1SVUICcPxDttwj-VCRMJ-49" value="" style="verticalLabelPosition=bottom;verticalAlign=top;html=1;shape=mxgraph.basic.polygon;polyCoords=[[-0.1,0],[1.1,0],[1,1],[0,1]];polyline=0;container=0;" vertex="1" parent="1SVUICcPxDttwj-VCRMJ-48">
          <mxGeometry x="27" width="60" height="27" as="geometry" />
        </mxCell>
        <mxCell id="1SVUICcPxDttwj-VCRMJ-50" value="" style="verticalLabelPosition=bottom;verticalAlign=top;html=1;shape=mxgraph.basic.polygon;polyCoords=[[-0.1,0],[1.1,0],[1,1],[0,1]];polyline=0;rotation=-180;direction=south;container=0;" vertex="1" parent="1SVUICcPxDttwj-VCRMJ-48">
          <mxGeometry y="27" width="27" height="60" as="geometry" />
        </mxCell>
        <mxCell id="1SVUICcPxDttwj-VCRMJ-51" value="" style="verticalLabelPosition=bottom;verticalAlign=top;html=1;shape=mxgraph.basic.polygon;polyCoords=[[-0.1,0],[1.1,0],[1,1],[0,1]];polyline=0;rotation=-180;direction=south;flipV=1;flipH=1;container=0;" vertex="1" parent="1SVUICcPxDttwj-VCRMJ-48">
          <mxGeometry x="87" y="27" width="27" height="60" as="geometry" />
        </mxCell>
        <mxCell id="1SVUICcPxDttwj-VCRMJ-52" value="" style="verticalLabelPosition=bottom;verticalAlign=top;html=1;shape=mxgraph.basic.polygon;polyCoords=[[-0.1,0],[1.1,0],[1,1],[0,1]];polyline=0;flipH=1;flipV=1;container=0;" vertex="1" parent="1SVUICcPxDttwj-VCRMJ-48">
          <mxGeometry x="27" y="87" width="60" height="27" as="geometry" />
        </mxCell>
        <mxCell id="1SVUICcPxDttwj-VCRMJ-53" value="&lt;b&gt;page&lt;/b&gt;&lt;div&gt;&lt;b&gt;up&lt;/b&gt;&lt;/div&gt;" style="whiteSpace=wrap;html=1;aspect=fixed;fillColor=#dae8fc;strokeColor=#6c8ebf;fontSize=20;fontFamily=hack;container=0;" vertex="1" parent="1SVUICcPxDttwj-VCRMJ-48">
          <mxGeometry x="27" y="27" width="60" height="60" as="geometry" />
        </mxCell>
        <mxCell id="1SVUICcPxDttwj-VCRMJ-54" value="" style="group;fontSize=13;" vertex="1" connectable="0" parent="1">
          <mxGeometry x="620" y="-620" width="114" height="114" as="geometry" />
        </mxCell>
        <mxCell id="1SVUICcPxDttwj-VCRMJ-55" value="" style="verticalLabelPosition=bottom;verticalAlign=top;html=1;shape=mxgraph.basic.polygon;polyCoords=[[-0.1,0],[1.1,0],[1,1],[0,1]];polyline=0;container=0;" vertex="1" parent="1SVUICcPxDttwj-VCRMJ-54">
          <mxGeometry x="27" width="60" height="27" as="geometry" />
        </mxCell>
        <mxCell id="1SVUICcPxDttwj-VCRMJ-56" value="" style="verticalLabelPosition=bottom;verticalAlign=top;html=1;shape=mxgraph.basic.polygon;polyCoords=[[-0.1,0],[1.1,0],[1,1],[0,1]];polyline=0;rotation=-180;direction=south;container=0;" vertex="1" parent="1SVUICcPxDttwj-VCRMJ-54">
          <mxGeometry y="27" width="27" height="60" as="geometry" />
        </mxCell>
        <mxCell id="1SVUICcPxDttwj-VCRMJ-57" value="" style="verticalLabelPosition=bottom;verticalAlign=top;html=1;shape=mxgraph.basic.polygon;polyCoords=[[-0.1,0],[1.1,0],[1,1],[0,1]];polyline=0;rotation=-180;direction=south;flipV=1;flipH=1;container=0;" vertex="1" parent="1SVUICcPxDttwj-VCRMJ-54">
          <mxGeometry x="87" y="27" width="27" height="60" as="geometry" />
        </mxCell>
        <mxCell id="1SVUICcPxDttwj-VCRMJ-58" value="" style="verticalLabelPosition=bottom;verticalAlign=top;html=1;shape=mxgraph.basic.polygon;polyCoords=[[-0.1,0],[1.1,0],[1,1],[0,1]];polyline=0;flipH=1;flipV=1;container=0;" vertex="1" parent="1SVUICcPxDttwj-VCRMJ-54">
          <mxGeometry x="27" y="87" width="60" height="27" as="geometry" />
        </mxCell>
        <mxCell id="1SVUICcPxDttwj-VCRMJ-59" value="&lt;b&gt;page down&lt;/b&gt;" style="whiteSpace=wrap;html=1;aspect=fixed;fillColor=#dae8fc;strokeColor=#6c8ebf;fontSize=20;fontFamily=hack;container=0;" vertex="1" parent="1SVUICcPxDttwj-VCRMJ-54">
          <mxGeometry x="27" y="27" width="60" height="60" as="geometry" />
        </mxCell>
        <mxCell id="1SVUICcPxDttwj-VCRMJ-60" value="" style="group" vertex="1" connectable="0" parent="1">
          <mxGeometry x="620" y="-780" width="114" height="114" as="geometry" />
        </mxCell>
        <mxCell id="1SVUICcPxDttwj-VCRMJ-61" value="" style="verticalLabelPosition=bottom;verticalAlign=top;html=1;shape=mxgraph.basic.polygon;polyCoords=[[-0.1,0],[1.1,0],[1,1],[0,1]];polyline=0;container=0;" vertex="1" parent="1SVUICcPxDttwj-VCRMJ-60">
          <mxGeometry x="27" width="60" height="27" as="geometry" />
        </mxCell>
        <mxCell id="1SVUICcPxDttwj-VCRMJ-62" value="" style="verticalLabelPosition=bottom;verticalAlign=top;html=1;shape=mxgraph.basic.polygon;polyCoords=[[-0.1,0],[1.1,0],[1,1],[0,1]];polyline=0;rotation=-180;direction=south;container=0;" vertex="1" parent="1SVUICcPxDttwj-VCRMJ-60">
          <mxGeometry y="27" width="27" height="60" as="geometry" />
        </mxCell>
        <mxCell id="1SVUICcPxDttwj-VCRMJ-63" value="" style="verticalLabelPosition=bottom;verticalAlign=top;html=1;shape=mxgraph.basic.polygon;polyCoords=[[-0.1,0],[1.1,0],[1,1],[0,1]];polyline=0;rotation=-180;direction=south;flipV=1;flipH=1;container=0;" vertex="1" parent="1SVUICcPxDttwj-VCRMJ-60">
          <mxGeometry x="87" y="27" width="27" height="60" as="geometry" />
        </mxCell>
        <mxCell id="1SVUICcPxDttwj-VCRMJ-64" value="" style="verticalLabelPosition=bottom;verticalAlign=top;html=1;shape=mxgraph.basic.polygon;polyCoords=[[-0.1,0],[1.1,0],[1,1],[0,1]];polyline=0;flipH=1;flipV=1;container=0;" vertex="1" parent="1SVUICcPxDttwj-VCRMJ-60">
          <mxGeometry x="27" y="87" width="60" height="27" as="geometry" />
        </mxCell>
        <mxCell id="1SVUICcPxDttwj-VCRMJ-65" value="&lt;font style=&quot;font-size: 28px;&quot;&gt;&lt;b style=&quot;font-size: 28px;&quot;&gt;F16&lt;/b&gt;&lt;/font&gt;" style="whiteSpace=wrap;html=1;aspect=fixed;fillColor=#d5e8d4;strokeColor=#82b366;fontSize=28;fontFamily=hack;container=0;" vertex="1" parent="1SVUICcPxDttwj-VCRMJ-60">
          <mxGeometry x="27" y="27" width="60" height="60" as="geometry" />
        </mxCell>
      </root>
    </mxGraphModel>
  </diagram>
</mxfile>
